<?xml version="1.0" encoding="UTF-8" standalone="no"?><!DOCTYPE svg PUBLIC "-//W3C//DTD SVG 1.1//EN" "http://www.w3.org/Graphics/SVG/1.1/DTD/svg11.dtd"><svg width="100%" height="100%" viewBox="0 0 48 48" version="1.1" xmlns="http://www.w3.org/2000/svg" xmlns:xlink="http://www.w3.org/1999/xlink" xml:space="preserve" style="fill-rule:evenodd;clip-rule:evenodd;stroke-linejoin:round;stroke-miterlimit:1.41421;"><rect id="_48" x="0" y="0" width="48" height="48" style="fill:none;"/><g><rect x="0" y="0" width="48" height="48" style="fill:#036;fill-opacity:0;"/><g id="graphic"><path d="M27.919,16.194l11.479,-3.245l0.775,1.453l-8.864,7.652l-3.39,-5.86Z" style="fill:#fedd12;"/><circle cx="41.335" cy="12.658" r="2.664" style="fill:#036;fill-opacity:0.9;"/><path d="M38.671,12.949c0,0 0.678,1.065 2.809,0.92c2.228,-0.146 2.567,-1.55 2.567,-1.55c0,0 1.163,3.003 -2.082,3.342c-3.197,0.387 -3.294,-2.712 -3.294,-2.712Z" style="fill:#036;"/><clipPath id="_clip1"><path d="M27.919,16.194l11.479,-3.245l0.775,1.453l-8.864,7.652l-3.39,-5.86Z"/></clipPath><g clip-path="url(#_clip1)"><path d="M32.714,13.288c0,0 1.453,0.968 2.518,3.002c1.066,2.035 1.163,3.439 1.163,3.439l-1.841,1.453l-3.439,-6.877l1.599,-1.017Z" style="fill:#e69527;"/></g><path d="M31.067,32.516c0,0 0.291,1.937 1.162,2.712c0.872,0.775 1.889,0.872 1.889,0.872c0,0 -2.567,1.066 -4.795,-1.162c-2.228,-2.228 -0.726,-3.827 -0.726,-3.827l2.47,1.405Z" style="fill:#d1d6da;"/><clipPath id="_clip2"><path d="M31.067,32.516c0,0 0.291,1.937 1.162,2.712c0.872,0.775 1.889,0.872 1.889,0.872c0,0 -2.567,1.066 -4.795,-1.162c-2.228,-2.228 -0.726,-3.827 -0.726,-3.827l2.47,1.405Z"/></clipPath><g clip-path="url(#_clip2)"><path d="M26.32,36.342c0,0 3.73,0 6.2,-1.598c2.422,-1.598 -1.114,-3.633 -1.114,-3.633l-5.037,2.907l0,2.324l-0.049,0Z" style="fill:#b2b5b7;"/></g><path d="M21.574,35.713c0,0 2.179,0.726 2.809,3.1c0.533,2.179 -0.242,3.438 -0.242,3.438c0,0 0.339,1.889 3.148,1.453c2.664,-0.387 2.131,-2.712 2.131,-2.712c0,0 -1.84,-1.647 -1.937,-3.536c-0.097,-1.889 0.484,-2.954 0.484,-2.954l-6.393,1.211Z" style="fill:#036;fill-opacity:0.9;"/><g><clipPath id="_clip3"><path d="M21.574,35.713c0,0 2.518,0.678 2.809,3.1c0.242,2.421 -0.242,3.438 -0.242,3.438c0,0 0.339,1.889 3.148,1.453c2.664,-0.387 2.131,-2.712 2.131,-2.712c0,0 -1.84,-1.647 -1.937,-3.536c-0.097,-1.889 0.484,-2.954 0.484,-2.954l-6.393,1.211Z"/></clipPath><g clip-path="url(#_clip3)"><path d="M25.546,33.63c0,0 -0.824,6.49 1.356,7.653c1.598,0.871 2.518,0 2.518,0l-0.92,-7.653l-2.954,0Z" style="fill:#036;"/></g><clipPath id="_clip4"><path d="M21.574,35.713c0,0 2.518,0.678 2.809,3.1c0.242,2.421 -0.242,3.438 -0.242,3.438c0,0 0.339,1.889 3.148,1.453c2.664,-0.387 2.131,-2.712 2.131,-2.712c0,0 -1.84,-1.647 -1.937,-3.536c-0.097,-1.889 0.484,-2.954 0.484,-2.954l-6.393,1.211Z"/></clipPath><g clip-path="url(#_clip4)"><path d="M22.01,35.325c0,0 2.034,0.92 3.971,0.436c1.938,-0.533 1.841,-1.501 1.841,-1.501l-5.812,1.065Z" style="fill:#036;"/></g></g><path d="M22.494,11.205c0,0 -4.843,-2.616 -10.559,-1.453c-5.666,1.162 -8.185,5.279 -8.185,5.279c0,0 3.584,0.872 4.601,3.1c1.017,2.228 0.775,2.858 0.775,2.858l13.368,-9.784Z" style="fill:#e69527;"/><path d="M21.138,8.541c0,0 -5.425,-0.92 -10.413,2.228c-4.989,3.148 -6.006,8.137 -6.006,8.137c0,0 3.681,-0.388 5.376,1.453c1.695,1.84 1.695,2.615 1.695,2.615l9.348,-14.433Z" style="fill:#fedd12;"/><path d="M23.172,7.427c-1.453,0.339 -2.906,0.872 -4.359,1.55c-8.718,4.214 -13.174,13.174 -9.929,19.955c3.294,6.829 13.029,8.912 21.796,4.698c1.646,-0.823 3.196,-1.792 4.504,-2.858l-3.051,-13.271l-8.961,-10.074Z" style="fill:#254dee;"/><path d="M13.824,25.784c0,0 -0.726,-5.086 4.117,-7.508c4.65,-2.325 8.186,1.017 8.186,1.017c0,0 -4.456,-6.344 -9.929,-2.324c-5.473,4.068 -2.374,8.815 -2.374,8.815Z" style="fill:#036;"/><clipPath id="_clip5"><path d="M23.172,7.427c-1.453,0.339 -2.906,0.872 -4.359,1.55c-8.718,4.214 -13.174,13.174 -9.929,19.955c3.294,6.829 13.029,8.912 21.796,4.698c1.646,-0.823 3.196,-1.792 4.504,-2.858l-3.051,-13.271l-8.961,-10.074Z"/></clipPath><g clip-path="url(#_clip5)"><path d="M14.357,36.342c0,0 1.211,-0.484 1.598,-2.373c0.243,-1.162 0,-1.937 0,-1.937c0,0 4.069,2.325 8.864,0.145c5.715,-2.567 5.134,-8.718 5.134,-8.718l1.986,-0.63l-1.017,-1.889l-2.567,1.066c0,0 0.678,6.248 -4.214,8.427c-4.844,2.131 -9.832,-1.646 -9.832,-1.646l-2.228,1.937l-2.906,0.63l5.182,4.988Z" style="fill:#036;"/></g><path d="M25.642,17.453l4.602,-2.858l2.906,6.587l-4.65,1.696l-2.858,-5.425Z" style="fill:#fedd12;"/><path d="M12.226,25.784c0,0 -1.405,0.484 -2.615,2.034c-1.018,1.308 -1.502,2.712 -1.502,2.712l3.051,1.114c0,0 -0.581,0.92 -1.888,1.502c-1.357,0.581 -2.083,0.726 -2.083,0.726c0,0 2.422,1.889 5.279,0.92c2.664,-0.92 2.761,-3.342 2.761,-3.342l-2.131,-1.017l1.743,-0.968l-2.615,-3.681Z" style="fill:#fedd12;"/><path d="M11.742,23.507c0,-4.795 3.923,-8.718 8.718,-8.718c4.795,0 8.718,3.923 8.718,8.718c0,4.795 -3.923,8.718 -8.718,8.718c-4.795,-0.048 -8.718,-3.923 -8.718,-8.718Zm8.718,7.023c3.875,0 7.023,-3.148 7.023,-7.023c0,-3.875 -3.148,-7.071 -7.023,-7.071c-3.875,0 -7.023,3.148 -7.023,7.023c0,3.875 3.148,7.071 7.023,7.071Z" style="fill:#fedd12;"/><path d="M22.591,7.475c0,0 2.47,3.633 6.49,11.77c3.875,7.846 5.667,12.157 5.667,12.157l3.294,-0.92c0,0 -1.211,-7.072 -5.086,-14.046c-3.972,-7.169 -7.75,-10.85 -7.75,-10.85l-2.615,1.889Z" style="fill:#7e7e7e;"/><g><clipPath id="_clip6"><path d="M22.591,7.475c0,0 2.47,3.633 6.49,11.77c3.875,7.846 5.667,12.157 5.667,12.157l3.294,-0.92c0,0 -1.211,-7.072 -5.086,-14.046c-3.972,-7.169 -7.75,-10.85 -7.75,-10.85l-2.615,1.889Z"/></clipPath><g clip-path="url(#_clip6)"><path d="M25.158,13.288l4.843,-3.488l-4.843,-5.57l-3.342,2.277l3.342,6.781Z" style="fill:#bababa;"/><path d="M25.933,13.966l4.892,-3.245l1.065,1.937l-5.424,2.712l-0.533,-1.404Z" style="fill:#bababa;"/><path d="M31.89,26.607l5.474,-2.083l1.307,6.248l-4.553,1.405l-2.228,-5.57Z" style="fill:#b2b5b7;"/></g></g></g><g><path id="path3962" d="M16.239,20.69c0,0 -0.081,1.699 2.439,4.173c2.52,2.474 2.806,3.479 2.669,4.174l1.832,0c0,0 0.167,-2.871 -2.673,-4.887c0,0 -1.956,-1.739 -2.275,-3.12c0,0 -0.962,-0.001 -1.632,-0.539c0,0 -0.361,-0.217 -0.36,0.199" style="fill:#fff;"/><path id="path3966" d="M20.139,24.615c0.506,0.359 0.915,0.746 1.248,1.138c0.243,-0.259 0.515,-0.537 0.821,-0.837c2.519,-2.474 2.439,-4.226 2.439,-4.226c0.001,-0.416 -0.361,-0.186 -0.361,-0.186c-0.669,0.539 -1.632,0.552 -1.632,0.552c-0.318,1.381 -2.274,3.147 -2.274,3.147c-0.132,0.094 -0.256,0.19 -0.376,0.288c0.085,0.08 0.135,0.124 0.135,0.124" style="fill:#fff;"/><path id="path3970" d="M20.115,27.299c-0.325,-0.42 -0.759,-0.912 -1.333,-1.499c-1.17,1.682 -1.076,3.343 -1.076,3.343l1.833,0c-0.082,-0.427 -0.014,-0.968 0.576,-1.844" style="fill:#fff;"/><path id="path3974" d="M19.52,21.184l1.816,0c0,0 0.237,-0.034 0.179,0.281c-0.082,0.446 -1.062,1.351 -1.062,1.351c0,0 -0.717,-0.665 -1.036,-1.29c0,0 -0.129,-0.342 0.103,-0.342" style="fill:#fff;"/><path id="path3978" d="M23.628,19.306c0,0.438 -0.355,0.793 -0.793,0.793c-0.439,0 -0.794,-0.355 -0.794,-0.793c0,-0.438 0.355,-0.793 0.794,-0.793c0.438,0 0.793,0.355 0.793,0.793" style="fill:#fff;"/><path id="path3982" d="M18.955,19.306c0,0.438 -0.355,0.793 -0.793,0.793c-0.439,0 -0.794,-0.355 -0.794,-0.793c0,-0.438 0.355,-0.793 0.794,-0.793c0.438,0 0.793,0.355 0.793,0.793" style="fill:#fff;"/><path id="path3986" d="M21.337,18.665c0,0.438 -0.355,0.793 -0.793,0.793c-0.438,0 -0.794,-0.355 -0.794,-0.793c0,-0.439 0.356,-0.794 0.794,-0.794c0.438,0 0.793,0.355 0.793,0.794" style="fill:#fff;"/></g></g></svg>